{
  "accessors": [
    {
      "bufferView": 2,
      "componentType": 5126,
      "count": 36806,
      "max": [
        30.5172176361084,
        154.17222595214844,
        20.05002212524414
      ],
      "min": [
        -29.16889762878418,
        83.8652572631836,
        -12.9072847366333
      ],
      "type": "VEC3"
    },
    {
      "bufferView": 2,
      "byteOffset": 441672,
      "componentType": 5126,
      "count": 36806,
      "max": [
        0.9999909996986389,
        0.9998264312744141,
        0.9999972581863403
      ],
      "min": [
        -0.9999908208847046,
        -0.9999590516090393,
        -0.9999972581863403
      ],
      "type": "VEC3"
    },
    {
      "bufferView": 1,
      "componentType": 5126,
      "count": 36806,
      "max": [
        0.9689164161682129,
        0.9799577593803406
      ],
      "min": [
        0.01999998651444912,
        0.01999995857477188
      ],
      "type": "VEC2"
    },
    {
      "bufferView": 2,
      "byteOffset": 883344,
      "componentType": 5126,
      "count": 36806,
      "max": [
        1.0987920761108398,
        0.8884506225585938,
        1.2540324926376343
      ],
      "min": [
        -0.49540138244628906,
        -0.18816375732421875,
        -1.2669477462768555
      ],
      "type": "VEC3"
    },
    {
      "bufferView": 2,
      "byteOffset": 1325016,
      "componentType": 5126,
      "count": 36806,
      "max": [
        1.8037776947021484,
        1.742950439453125,
        2.6903367042541504
      ],
      "min": [
        -0.6747655868530273,
        -0.1300201416015625,
        -2.295412063598633
      ],
      "type": "VEC3"
    },
    {
      "bufferView": 2,
      "byteOffset": 1766688,
      "componentType": 5126,
      "count": 36806,
      "max": [
        2.3770999908447266,
        2.2140884399414063,
        4.2063117027282715
      ],
      "min": [
        -1.4816484451293945,
        -0.5461578369140625,
        -3.0111517906188965
      ],
      "type": "VEC3"
    },
    {
      "bufferView": 2,
      "byteOffset": 2208360,
      "componentType": 5126,
      "count": 36806,
      "max": [
        2.994840621948242,
        2.25164794921875,
        5.6428303718566895
      ],
      "min": [
        -2.138916492462158,
        -1.3693084716796875,
        -3.5896401405334473
      ],
      "type": "VEC3"
    },
    {
      "bufferView": 2,
      "byteOffset": 2650032,
      "componentType": 5126,
      "count": 36806,
      "max": [
        3.1365976333618164,
        2.01690673828125,
        6.944281101226807
      ],
      "min": [
        -2.570730209350586,
        -2.4796142578125,
        -4.153627872467041
      ],
      "type": "VEC3"
    },
    {
      "bufferView": 2,
      "byteOffset": 3091704,
      "componentType": 5126,
      "count": 36806,
      "max": [
        3.6271657943725586,
        1.2081832885742188,
        8.035571098327637
      ],
      "min": [
        -2.791499614715576,
        -3.895233154296875,
        -4.91754150390625
      ],
      "type": "VEC3"
    },
    {
      "bufferView": 2,
      "byteOffset": 3533376,
      "componentType": 5126,
      "count": 36806,
      "max": [
        3.925342559814453,
        0.43596649169921875,
        8.735800743103027
      ],
      "min": [
        -3.0705819129943848,
        -5.347808837890625,
        -5.593099594116211
      ],
      "type": "VEC3"
    },
    {
      "bufferView": 2,
      "byteOffset": 3975048,
      "componentType": 5126,
      "count": 36806,
      "max": [
        3.992025375366211,
        -0.08748626708984375,
        9.133556365966797
      ],
      "min": [
        -3.510997772216797,
        -6.134025573730469,
        -6.182204723358154
      ],
      "type": "VEC3"
    },
    {
      "bufferView": 2,
      "byteOffset": 4416720,
      "componentType": 5126,
      "count": 36806,
      "max": [
        4.012973785400391,
        0.05419921875,
        9.290366172790527
      ],
      "min": [
        -4.111763000488281,
        -6.2118682861328125,
        -6.4785990715026855
      ],
      "type": "VEC3"
    },
    {
      "bufferView": 2,
      "byteOffset": 4858392,
      "componentType": 5126,
      "count": 36806,
      "max": [
        3.9763450622558594,
        0.42279815673828125,
        9.223814010620117
      ],
      "min": [
        -4.743252277374268,
        -5.8961334228515625,
        -6.712610721588135
      ],
      "type": "VEC3"
    },
    {
      "bufferView": 2,
      "byteOffset": 5300064,
      "componentType": 5126,
      "count": 36806,
      "max": [
        3.856928825378418,
        0.7989654541015625,
        9.024935722351074
      ],
      "min": [
        -5.2644877433776855,
        -5.2746429443359375,
        -6.777896404266357
      ],
      "type": "VEC3"
    },
    {
      "bufferView": 2,
      "byteOffset": 5741736,
      "componentType": 5126,
      "count": 36806,
      "max": [
        3.652088165283203,
        1.076324462890625,
        8.686326026916504
      ],
      "min": [
        -5.746735572814941,
        -4.677642822265625,
        -6.5001420974731445
      ],
      "type": "VEC3"
    },
    {
      "bufferView": 2,
      "byteOffset": 6183408,
      "componentType": 5126,
      "count": 36806,
      "max": [
        3.414727210998535,
        1.4333953857421875,
        8.201213836669922
      ],
      "min": [
        -6.110309600830078,
        -4.0204925537109375,
        -5.831297874450684
      ],
      "type": "VEC3"
    },
    {
      "bufferView": 2,
      "byteOffset": 6625080,
      "componentType": 5126,
      "count": 36806,
      "max": [
        2.9932117462158203,
        2.06591796875,
        7.428864002227783
      ],
      "min": [
        -6.229926109313965,
        -3.1933135986328125,
        -4.805490493774414
      ],
      "type": "VEC3"
    },
    {
      "bufferView": 2,
      "byteOffset": 7066752,
      "componentType": 5126,
      "count": 36806,
      "max": [
        2.7465572357177734,
        2.485198974609375,
        6.319438457489014
      ],
      "min": [
        -6.170422554016113,
        -2.51519775390625,
        -4.757075786590576
      ],
      "type": "VEC3"
    },
    {
      "bufferView": 2,
      "byteOffset": 7508424,
      "componentType": 5126,
      "count": 36806,
      "max": [
        2.7006711959838867,
        2.4120025634765625,
        5.297000408172607
      ],
      "min": [
        -5.89033317565918,
        -1.9961776733398438,
        -4.801639556884766
      ],
      "type": "VEC3"
    },
    {
      "bufferView": 2,
      "byteOffset": 7950096,
      "componentType": 5126,
      "count": 36806,
      "max": [
        2.707524299621582,
        2.4695358276367188,
        5.389673233032227
      ],
      "min": [
        -5.563381195068359,
        -1.5874710083007813,
        -4.835395812988281
      ],
      "type": "VEC3"
    },
    {
      "bufferView": 2,
      "byteOffset": 8391768,
      "componentType": 5126,
      "count": 36806,
      "max": [
        2.653294563293457,
        2.5358200073242188,
        5.332632064819336
      ],
      "min": [
        -5.193547248840332,
        -1.2095794677734375,
        -4.903794288635254
      ],
      "type": "VEC3"
    },
    {
      "bufferView": 2,
      "byteOffset": 8833440,
      "componentType": 5126,
      "count": 36806,
      "max": [
        2.6967897415161133,
        2.5875167846679688,
        5.1267290115356445
      ],
      "min": [
        -4.854413986206055,
        -1.0637435913085938,
        -5.257876396179199
      ],
      "type": "VEC3"
    },
    {
      "bufferView": 2,
      "byteOffset": 9275112,
      "componentType": 5126,
      "count": 36806,
      "max": [
        2.586459159851074,
        2.2324371337890625,
        4.970232963562012
      ],
      "min": [
        -4.593517303466797,
        -1.1664962768554688,
        -5.828386306762695
      ],
      "type": "VEC3"
    },
    {
      "bufferView": 2,
      "byteOffset": 9716784,
      "componentType": 5126,
      "count": 36806,
      "max": [
        2.8610973358154297,
        1.9576416015625,
        5.971174240112305
      ],
      "min": [
        -4.412050247192383,
        -2.111236572265625,
        -6.463615417480469
      ],
      "type": "VEC3"
    },
    {
      "bufferView": 2,
      "byteOffset": 10158456,
      "componentType": 5126,
      "count": 36806,
      "max": [
        2.886651039123535,
        1.8079833984375,
        7.146731376647949
      ],
      "min": [
        -4.336080551147461,
        -3.141082763671875,
        -6.864651679992676
      ],
      "type": "VEC3"
    },
    {
      "bufferView": 2,
      "byteOffset": 10600128,
      "componentType": 5126,
      "count": 36806,
      "max": [
        2.7745628356933594,
        1.2740859985351563,
        7.995763778686523
      ],
      "min": [
        -4.402471542358398,
        -4.1902923583984375,
        -7.006635665893555
      ],
      "type": "VEC3"
    },
    {
      "bufferView": 2,
      "byteOffset": 11041800,
      "componentType": 5126,
      "count": 36806,
      "max": [
        2.653191566467285,
        0.5832290649414063,
        8.567789077758789
      ],
      "min": [
        -4.408031463623047,
        -5.3221893310546875,
        -7.174975395202637
      ],
      "type": "VEC3"
    },
    {
      "bufferView": 2,
      "byteOffset": 11483472,
      "componentType": 5126,
      "count": 36806,
      "max": [
        2.517803192138672,
        0.15636444091796875,
        8.785465240478516
      ],
      "min": [
        -4.269355773925781,
        -5.9872894287109375,
        -8.209372520446777
      ],
      "type": "VEC3"
    },
    {
      "bufferView": 2,
      "byteOffset": 11925144,
      "componentType": 5126,
      "count": 36806,
      "max": [
        2.5358810424804688,
        0.11517333984375,
        8.646306037902832
      ],
      "min": [
        -4.182917594909668,
        -6.116249084472656,
        -8.880976676940918
      ],
      "type": "VEC3"
    },
    {
      "bufferView": 2,
      "byteOffset": 12366816,
      "componentType": 5126,
      "count": 36806,
      "max": [
        2.693347930908203,
        0.1696929931640625,
        8.239164352416992
      ],
      "min": [
        -4.23153018951416,
        -5.7928619384765625,
        -9.280593872070313
      ],
      "type": "VEC3"
    },
    {
      "bufferView": 2,
      "byteOffset": 12808488,
      "componentType": 5126,
      "count": 36806,
      "max": [
        2.7934083938598633,
        -0.1243133544921875,
        7.7706193923950195
      ],
      "min": [
        -4.281826019287109,
        -5.4275360107421875,
        -9.113962173461914
      ],
      "type": "VEC3"
    },
    {
      "bufferView": 2,
      "byteOffset": 13250160,
      "componentType": 5126,
      "count": 36806,
      "max": [
        2.8779730796813965,
        -0.4861602783203125,
        7.307009696960449
      ],
      "min": [
        -4.1512250900268555,
        -5.285545349121094,
        -8.356464385986328
      ],
      "type": "VEC3"
    },
    {
      "bufferView": 2,
      "byteOffset": 13691832,
      "componentType": 5126,
      "count": 36806,
      "max": [
        3.173673629760742,
        -0.5992279052734375,
        6.844363212585449
      ],
      "min": [
        -3.9714317321777344,
        -5.251029968261719,
        -7.559447288513184
      ],
      "type": "VEC3"
    },
    {
      "bufferView": 2,
      "byteOffset": 14133504,
      "componentType": 5126,
      "count": 36806,
      "max": [
        3.2631735801696777,
        -0.698211669921875,
        6.385281085968018
      ],
      "min": [
        -3.626005172729492,
        -5.044189453125,
        -6.451679229736328
      ],
      "type": "VEC3"
    },
    {
      "bufferView": 2,
      "byteOffset": 14575176,
      "componentType": 5126,
      "count": 36806,
      "max": [
        3.123439311981201,
        -0.4923858642578125,
        5.567487716674805
      ],
      "min": [
        -3.184612274169922,
        -4.874076843261719,
        -5.178638458251953
      ],
      "type": "VEC3"
    },
    {
      "bufferView": 2,
      "byteOffset": 15016848,
      "componentType": 5126,
      "count": 36806,
      "max": [
        2.786101818084717,
        -0.058990478515625,
        4.65708065032959
      ],
      "min": [
        -2.8042993545532227,
        -4.053321838378906,
        -3.961902618408203
      ],
      "type": "VEC3"
    },
    {
      "bufferView": 2,
      "byteOffset": 15458520,
      "componentType": 5126,
      "count": 36806,
      "max": [
        1.9962477684020996,
        0.247100830078125,
        3.3754403591156006
      ],
      "min": [
        -2.254195213317871,
        -2.9883041381835938,
        -3.2951364517211914
      ],
      "type": "VEC3"
    },
    {
      "bufferView": 2,
      "byteOffset": 15900192,
      "componentType": 5126,
      "count": 36806,
      "max": [
        1.3907032012939453,
        0.844146728515625,
        2.149632215499878
      ],
      "min": [
        -1.7179346084594727,
        -1.9438858032226563,
        -2.448423385620117
      ],
      "type": "VEC3"
    },
    {
      "bufferView": 2,
      "byteOffset": 16341864,
      "componentType": 5126,
      "count": 36806,
      "max": [
        1.502711296081543,
        1.2754287719726563,
        1.4998180866241455
      ],
      "min": [
        -1.701706886291504,
        -1.2570343017578125,
        -1.8350565433502197
      ],
      "type": "VEC3"
    },
    {
      "bufferView": 0,
      "componentType": 5125,
      "count": 219948,
      "type": "SCALAR"
    },
    {
      "bufferView": 3,
      "componentType": 5126,
      "count": 37,
      "max": [
        1.2000000476837158
      ],
      "min": [
        0.0
      ],
      "type": "SCALAR"
    },
    {
      "bufferView": 3,
      "byteOffset": 148,
      "componentType": 5126,
      "count": 1332,
      "max": [
        1.0
      ],
      "min": [
        0.0
      ],
      "type": "SCALAR"
    }
  ],
  "animations": [
    {
      "channels": [
        {
          "sampler": 0,
          "target": {
            "node": 5,
            "path": "weights"
          }
        }
      ],
      "name": "Object_0",
      "samplers": [
        {
          "input": 40,
          "interpolation": "LINEAR",
          "output": 41
        }
      ]
    }
  ],
  "asset": {
    "extras": {
      "author": "NFTAG - Connecting Trust (https://sketchfab.com/nftag)",
      "license": "CC-BY-4.0 (http://creativecommons.org/licenses/by/4.0/)",
      "source": "https://sketchfab.com/3d-models/normal-t-shirt-animated-42a8e5afb383454ea0a1bc9c7d09928b",
      "title": "Normal T-shirt Animated"
    },
    "generator": "Sketchfab-15.53.0",
    "version": "2.0"
  },
  "bufferViews": [
    {
      "buffer": 0,
      "byteLength": 879792,
      "name": "floatBufferViews",
      "target": 34963
    },
    {
      "buffer": 0,
      "byteLength": 294448,
      "byteOffset": 879792,
      "byteStride": 8,
      "name": "floatBufferViews",
      "target": 34962
    },
    {
      "buffer": 0,
      "byteLength": 16783536,
      "byteOffset": 1174240,
      "byteStride": 12,
      "name": "floatBufferViews",
      "target": 34962
    },
    {
      "buffer": 0,
      "byteLength": 5476,
      "byteOffset": 17957776,
      "name": "floatBufferViews"
    }
  ],
  "buffers": [
    {
      "byteLength": 17963252,
      "uri": "scene.bin"
    }
  ],
  "extensionsUsed": [
    "KHR_materials_specular"
  ],
  "images": [
    {
      "uri": "textures/cloth_shape_0_baseColor.png"
    }
  ],
  "materials": [
    {
      "doubleSided": true,
      "extensions": {
        "KHR_materials_specular": {
          "specularColorFactor": [
            1.0,
            1.0,
            1.0
          ],
          "specularFactor": 0.3319044516120158
        }
      },
      "name": "cloth_shape_0",
      "pbrMetallicRoughness": {
        "baseColorFactor": [
          0.6748315795973189,
          0.6748315795973189,
          0.6748315795973189,
          1.0
        ],
        "baseColorTexture": {
          "index": 0
        },
        "metallicFactor": 0.8524188423039938,
        "roughnessFactor": 0.6619718496739608
      }
    }
  ],
  "meshes": [
    {
      "name": "cloth_shape_0",
      "primitives": [
        {
          "attributes": {
            "NORMAL": 1,
            "POSITION": 0,
            "TEXCOORD_0": 2
          },
          "indices": 39,
          "material": 0,
          "mode": 4,
          "targets": [
            {
              "POSITION": 3
            },
            {
              "POSITION": 4
            },
            {
              "POSITION": 5
            },
            {
              "POSITION": 6
            },
            {
              "POSITION": 7
            },
            {
              "POSITION": 8
            },
            {
              "POSITION": 9
            },
            {
              "POSITION": 10
            },
            {
              "POSITION": 11
            },
            {
              "POSITION": 12
            },
            {
              "POSITION": 13
            },
            {
              "POSITION": 14
            },
            {
              "POSITION": 15
            },
            {
              "POSITION": 16
            },
            {
              "POSITION": 17
            },
            {
              "POSITION": 18
            },
            {
              "POSITION": 19
            },
            {
              "POSITION": 20
            },
            {
              "POSITION": 21
            },
            {
              "POSITION": 22
            },
            {
              "POSITION": 23
            },
            {
              "POSITION": 24
            },
            {
              "POSITION": 25
            },
            {
              "POSITION": 26
            },
            {
              "POSITION": 27
            },
            {
              "POSITION": 28
            },
            {
              "POSITION": 29
            },
            {
              "POSITION": 30
            },
            {
              "POSITION": 31
            },
            {
              "POSITION": 32
            },
            {
              "POSITION": 33
            },
            {
              "POSITION": 34
            },
            {
              "POSITION": 35
            },
            {
              "POSITION": 36
            },
            {
              "POSITION": 37
            },
            {
              "POSITION": 38
            }
          ]
        }
      ],
      "weights": [
        0.0,
        0.0,
        0.0,
        0.0,
        0.0,
        0.0,
        0.0,
        0.0,
        0.0,
        0.0,
        0.0,
        0.0,
        0.0,
        0.0,
        0.0,
        0.0,
        0.0,
        0.0,
        0.0,
        0.0,
        0.0,
        0.0,
        0.0,
        0.0,
        0.0,
        0.0,
        0.0,
        0.0,
        0.0,
        0.0,
        0.0,
        0.0,
        0.0,
        0.0,
        0.0,
        0.0
      ]
    }
  ],
  "nodes": [
    {
      "children": [
        1
      ],
      "matrix": [
        1.0,
        0.0,
        0.0,
        0.0,
        0.0,
        2.220446049250313e-16,
        -1.0,
        0.0,
        0.0,
        1.0,
        2.220446049250313e-16,
        0.0,
        0.0,
        0.0,
        0.0,
        1.0
      ],
      "name": "Sketchfab_model"
    },
    {
      "children": [
        2
      ],
      "name": "3cd90d80edcb4fe6b14b9adaa7567913.abc.cleaner.materialmerger.gles"
    },
    {
      "children": [
        3
      ],
      "matrix": [
        1.0,
        0.0,
        0.0,
        0.0,
        0.0,
        2.220446049250313e-16,
        1.0,
        0.0,
        0.0,
        -1.0,
        2.220446049250313e-16,
        0.0,
        0.0,
        0.0,
        0.0,
        1.0
      ],
      "name": "Object_2"
    },
    {
      "children": [
        4
      ],
      "name": "Object_3"
    },
    {
      "children": [
        5
      ],
      "name": "MorphMainGroup"
    },
    {
      "mesh": 0,
      "name": "cloth_shape_0"
    }
  ],
  "samplers": [
    {
      "magFilter": 9729,
      "minFilter": 9987,
      "wrapS": 10497,
      "wrapT": 10497
    }
  ],
  "scene": 0,
  "scenes": [
    {
      "name": "Sketchfab_Scene",
      "nodes": [
        0
      ]
    }
  ],
  "textures": [
    {
      "sampler": 0,
      "source": 0
    }
  ]
}
